<svg width="13" height="12" viewBox="0 0 13 12" fill="none" xmlns="http://www.w3.org/2000/svg">
<g id="Frame 35">
<path id="image 3 (Traced)" fill-rule="evenodd" clip-rule="evenodd" d="M10.7943 1.6006C10.6577 1.62039 10.5398 1.65748 10.3186 1.75036C10.2783 1.76726 10.1631 1.81488 10.0624 1.85619C9.7145 1.99904 9.44018 2.11235 9.39917 2.13016C9.36368 2.14557 9.10268 2.25348 8.76794 2.39114C8.71511 2.41287 8.56279 2.47668 8.42946 2.53297C8.29612 2.58925 8.15821 2.64683 8.12299 2.66091C8.08777 2.675 8.00544 2.70996 7.94003 2.73861C7.87462 2.76726 7.77787 2.80831 7.72504 2.82983C7.67221 2.85136 7.55694 2.89877 7.46889 2.93518C7.38084 2.97159 7.26557 3.01914 7.21274 3.04084C7.08313 3.09405 6.92855 3.15778 6.74161 3.23506C6.65607 3.2704 6.47905 3.34343 6.34823 3.39731C6.21741 3.45119 6.05274 3.51904 5.9823 3.5481C5.91186 3.57714 5.80688 3.62026 5.74902 3.64392C5.69116 3.66757 5.63147 3.69255 5.61637 3.69943C5.60128 3.70631 5.55599 3.72482 5.51574 3.74056C5.47549 3.75629 5.4302 3.77477 5.41511 3.78159C5.40002 3.78841 5.31669 3.82318 5.22995 3.85884C4.92755 3.98315 4.76408 4.05065 4.54145 4.14309C4.41818 4.19429 4.2885 4.24766 4.25328 4.26171C4.21806 4.27576 4.12955 4.31187 4.0566 4.34196C3.98364 4.37205 3.86837 4.41952 3.80044 4.44747C3.65431 4.5076 3.51577 4.56482 3.29729 4.65526C3.10875 4.7333 2.84704 4.84086 2.77584 4.86956C2.74817 4.88072 2.71112 4.89646 2.69351 4.90454C2.6759 4.91262 2.61003 4.93978 2.54713 4.96488C2.48424 4.98999 2.38338 5.03095 2.323 5.0559C2.00555 5.18713 1.88509 5.23675 1.71007 5.30841C1.60441 5.35169 1.49531 5.39705 1.46764 5.40925C1.43997 5.42144 1.38439 5.44446 1.34414 5.46039C1.30389 5.47634 1.22564 5.51274 1.17026 5.54129C0.889582 5.686 0.758588 5.82683 0.760006 5.98232C0.760802 6.06935 0.791604 6.13118 0.875228 6.21368C0.941617 6.27916 0.941617 6.27916 1.32127 6.40495C1.84575 6.57872 2.08936 6.65726 2.54713 6.80017C2.80459 6.88055 2.97826 6.92138 3.15357 6.94273C3.28587 6.95885 3.57059 6.94933 3.68152 6.92507C3.88974 6.87953 3.90969 6.86975 4.21673 6.66244C4.51368 6.46194 4.96192 6.16021 5.25044 5.96659C5.36114 5.89232 5.45582 5.82798 5.46085 5.82363C5.46588 5.81929 5.50911 5.78999 5.55691 5.75854C5.6941 5.66824 6.03624 5.43884 6.04634 5.43038C6.05137 5.42616 6.13988 5.36606 6.24303 5.29682C6.64862 5.02455 7.11548 4.71059 7.2722 4.60468C8.08312 4.05668 8.24796 3.95324 8.4569 3.86127C8.63496 3.7829 8.76918 3.77482 8.80426 3.84039C8.84106 3.90913 8.77704 4.07838 8.64778 4.25408C8.58048 4.34557 8.00021 4.9238 7.46917 5.42856C7.41649 5.47863 7.32592 5.56516 7.26791 5.62086C7.08604 5.79547 6.99739 5.87973 6.97645 5.89789C6.96532 5.90754 6.8864 5.98226 6.80107 6.06391C6.71574 6.14557 6.63818 6.21911 6.6287 6.22735C6.6135 6.24054 6.50707 6.34032 6.27997 6.55428C6.24204 6.59001 6.18449 6.64353 6.15207 6.6732C6.11965 6.70288 6.08663 6.73334 6.07869 6.74088C6.07074 6.74843 5.96326 6.8478 5.83984 6.9617C5.56444 7.21584 5.51505 7.26946 5.46736 7.366C5.40285 7.4966 5.39516 7.60844 5.4421 7.73314C5.48349 7.84312 5.56861 7.94374 5.73073 8.07433C5.80824 8.13678 6.10902 8.36403 6.16984 8.40609C6.18745 8.41827 6.20598 8.43166 6.21101 8.43585C6.2205 8.44375 6.50484 8.64561 6.545 8.67297C6.55753 8.6815 6.62131 8.7255 6.68672 8.77073C6.82147 8.86393 7.78681 9.50975 7.91258 9.59084C7.95787 9.62004 8.05255 9.68169 8.12299 9.72786C8.19343 9.77402 8.26753 9.82242 8.28766 9.83543C8.30779 9.84842 8.35307 9.87979 8.38829 9.90513C8.65001 10.0934 9.00503 10.2757 9.25737 10.3512C9.43397 10.4041 9.61676 10.4231 9.73443 10.4008C9.97033 10.3561 10.1477 10.1614 10.235 9.85129C10.2575 9.77139 10.2616 9.74932 10.3007 9.49908C10.3487 9.19145 10.3701 9.05644 10.3872 8.95476C10.3969 8.8969 10.4151 8.78369 10.4276 8.70318C10.44 8.62268 10.4687 8.44154 10.4913 8.30066C10.5139 8.15978 10.5411 7.98893 10.5517 7.92101C10.5623 7.85308 10.581 7.73576 10.5932 7.66028C10.6127 7.54073 10.6786 7.12682 10.7353 6.76833C10.7453 6.70543 10.7614 6.60457 10.7712 6.5442C10.781 6.48382 10.8057 6.32944 10.826 6.20114C10.8464 6.07283 10.8752 5.8917 10.89 5.79861C10.9337 5.52514 11.001 5.09316 11.0227 4.94783C11.0306 4.895 11.0434 4.8106 11.0512 4.76029C11.0589 4.70997 11.0713 4.6297 11.0785 4.5819C11.0858 4.5341 11.0958 4.47029 11.1006 4.4401C11.1188 4.32608 11.1554 4.08887 11.169 3.99641C11.1828 3.9029 11.203 3.77133 11.2335 3.57559C11.3 3.14931 11.3892 2.52237 11.4077 2.35107C11.4282 2.16125 11.4226 1.96567 11.3943 1.88655C11.3111 1.65386 11.1049 1.5556 10.7943 1.6006Z" fill="white"/>
</g>
</svg>
