<svg width="12" height="12" viewBox="0 0 12 12" fill="none" xmlns="http://www.w3.org/2000/svg">
<path d="M11.3153 4.28343L9.53145 2.50243L7.76541 0.721437C7.30128 0.259436 6.6726 0 6.01719 0C5.36178 0 4.7331 0.259436 4.26897 0.721437L2.50648 2.50243L0.722593 4.26562C0.259841 4.729 0 5.35665 0 6.01099C0 6.66533 0.259841 7.29298 0.722593 7.75636L2.50648 9.53736L4.24756 11.2756C4.47691 11.5052 4.74939 11.6874 5.04938 11.8117C5.34937 11.936 5.67098 12 5.99578 12C6.32058 12 6.6422 11.936 6.94219 11.8117C7.24218 11.6874 7.51464 11.5052 7.74398 11.2756L9.50647 9.51599L11.269 7.73499C11.7286 7.28075 11.9911 6.66435 11.9998 6.01869C12.0085 5.37302 11.7626 4.74982 11.3153 4.28343ZM9.53145 9.51243C8.60962 8.60439 7.36902 8.09174 6.07407 8.08376C4.77911 8.07577 3.53223 8.57309 2.59925 9.46969C3.05303 9.01292 3.41181 8.471 3.65488 7.87519C3.89796 7.27937 4.02054 6.64141 4.01556 5.99809C4.01059 5.35476 3.87816 4.71878 3.6259 4.12678C3.37364 3.53477 3.00654 2.99847 2.54575 2.54874C3.47401 3.47274 4.73135 3.99161 6.04217 3.99161C7.35298 3.99161 8.61032 3.47274 9.53859 2.54874C8.61795 3.4738 8.10035 4.72433 8.09834 6.02838C8.09634 7.33244 8.61009 8.58456 9.52787 9.51243H9.53145Z" fill="white"/>
</svg>
